<?xml version="1.0" encoding="UTF-8"?>
<svg xmlns="http://www.w3.org/2000/svg" xmlns:xlink="http://www.w3.org/1999/xlink" width="40px" height="51px" viewBox="0 0 40 50" version="1.1">
<g id="surface1">
<path style=" stroke:none;fill-rule:nonzero;fill:rgb(16.862745%,66.27451%,46.666667%);fill-opacity:1;" d="M 17.933594 0 L 26.261719 0 L 26.261719 37.449219 C 21.996094 38.238281 18.855469 38.550781 15.460938 38.550781 C 5.292969 38.539062 0 34.085938 0 25.523438 C 0 17.269531 5.613281 11.917969 14.3125 11.917969 C 15.664062 11.917969 16.691406 12.023438 17.933594 12.332031 Z M 18.226562 19.082031 C 17.253906 18.769531 16.449219 18.664062 15.417969 18.664062 C 11.207031 18.664062 8.777344 21.1875 8.777344 25.605469 C 8.777344 29.90625 11.101562 32.28125 15.367188 32.28125 C 16.285156 32.28125 17.035156 32.230469 18.226562 32.074219 Z M 18.226562 19.082031 "/>
<path style=" stroke:none;fill-rule:nonzero;fill:rgb(16.862745%,66.27451%,46.666667%);fill-opacity:1;" d="M 39.871094 12.921875 L 39.871094 31.671875 C 39.871094 38.128906 39.378906 41.234375 37.933594 43.910156 C 36.582031 46.488281 34.804688 48.109375 31.128906 49.902344 L 23.40625 46.328125 C 27.082031 44.652344 28.859375 43.171875 29.996094 40.910156 C 31.183594 38.601562 31.558594 35.921875 31.558594 28.878906 L 31.558594 12.921875 Z M 30.71875 0 L 39.042969 0 L 39.042969 8.304688 L 30.71875 8.304688 Z M 30.71875 0 "/>
</g>
</svg>
