<?xml version="1.0" encoding="UTF-8"?>
<svg xmlns="http://www.w3.org/2000/svg" xmlns:xlink="http://www.w3.org/1999/xlink" width="60px" height="60px" viewBox="0 0 60 60" version="1.1">
<defs>
<linearGradient id="linear0" gradientUnits="userSpaceOnUse" x1="-133.268" y1="-202.91" x2="-133.198" y2="-202.84" gradientTransform="matrix(355.0875,0,0,355.89375,47330.739375,72223.44375)">
<stop offset="0" style="stop-color:rgb(21.960784%,49.411765%,72.156863%);stop-opacity:1;"/>
<stop offset="1" style="stop-color:rgb(21.176471%,41.176471%,58.039216%);stop-opacity:1;"/>
</linearGradient>
<linearGradient id="linear1" gradientUnits="userSpaceOnUse" x1="-133.575" y1="-203.203" x2="-133.495" y2="-203.133" gradientTransform="matrix(355.0875,0,0,355.89375,47454.489375,72343.9125)">
<stop offset="0" style="stop-color:rgb(100%,87.843137%,32.156863%);stop-opacity:1;"/>
<stop offset="1" style="stop-color:rgb(100%,76.470588%,19.215686%);stop-opacity:1;"/>
</linearGradient>
</defs>
<g id="surface1">
<path style=" stroke:none;fill-rule:nonzero;fill:url(#linear0);" d="M 29.785156 3.9375 C 16.472656 3.9375 17.3125 9.695312 17.3125 9.695312 L 17.3125 15.675781 L 29.972656 15.675781 L 29.972656 17.550781 L 12.273438 17.550781 C 12.273438 17.550781 3.75 16.5 3.75 30.007812 C 3.75 43.519531 11.273438 42.96875 11.273438 42.96875 L 15.617188 42.96875 L 15.617188 36.667969 C 15.617188 36.667969 15.375 29.144531 22.929688 29.144531 L 35.609375 29.144531 C 35.609375 29.144531 42.683594 29.253906 42.683594 22.296875 L 42.683594 10.875 C 42.683594 10.875 43.753906 3.914062 29.855469 3.914062 Z M 22.785156 7.945312 C 24.042969 7.914062 25.089844 8.90625 25.121094 10.164062 C 25.152344 11.417969 24.160156 12.464844 22.902344 12.496094 C 21.644531 12.527344 20.601562 11.535156 20.570312 10.277344 L 20.570312 10.238281 C 20.570312 8.980469 21.585938 7.964844 22.84375 7.964844 Z M 22.785156 7.945312 "/>
<path style=" stroke:none;fill-rule:nonzero;fill:url(#linear1);" d="M 30.160156 56.082031 C 43.472656 56.082031 42.628906 50.304688 42.628906 50.304688 L 42.628906 44.34375 L 29.972656 44.34375 L 29.972656 42.46875 L 47.726562 42.46875 C 47.726562 42.46875 56.25 43.421875 56.25 29.992188 C 56.25 16.558594 48.726562 17.03125 48.726562 17.03125 L 44.324219 17.03125 L 44.324219 23.25 C 44.324219 23.25 44.570312 30.773438 37.011719 30.773438 L 24.328125 30.773438 C 24.328125 30.773438 17.25 30.667969 17.25 37.628906 L 17.25 49.125 C 17.25 49.125 16.175781 56.085938 30.078125 56.085938 L 30.152344 56.085938 Z M 37.15625 52.054688 C 35.898438 52.085938 34.855469 51.09375 34.824219 49.835938 C 34.792969 48.582031 35.785156 47.535156 37.042969 47.503906 C 38.300781 47.472656 39.34375 48.464844 39.375 49.722656 L 39.375 49.78125 C 39.375 51.035156 38.355469 52.054688 37.097656 52.054688 Z M 37.15625 52.054688 "/>
</g>
</svg>
